<svg xmlns="http://www.w3.org/2000/svg" width="135" height="24" viewBox="0 0 135 24">
    <g fill="#EE4D64" fill-rule="evenodd">
        <text font-family="Roboto-Bold, Roboto" font-size="15" font-weight="bold">
            <tspan x="58" y="17">GYMPOINT</tspan>
        </text>
        <g fill-rule="nonzero">
            <path d="M42.246 5.355a3.18 3.18 0 0 0-1.384.315 3.202 3.202 0 0 0-4.577-2.68 3.202 3.202 0 0 0-3.19-2.968 3.202 3.202 0 0 0-3.198 3.199v5.301a.91.91 0 0 0 1.822 0V3.221c0-.76.617-1.377 1.376-1.377.76 0 1.377.617 1.377 1.377v17.238c0 .76-.617 1.378-1.377 1.378-.759 0-1.376-.618-1.376-1.377v-5.302a.91.91 0 0 0-.911-.91H18.523a.91.91 0 0 0 0 1.821h11.374v4.39a3.202 3.202 0 0 0 3.198 3.2 3.202 3.202 0 0 0 3.19-2.968c.42.203.89.317 1.386.317a3.202 3.202 0 0 0 3.191-2.997 3.202 3.202 0 0 0 4.582-2.883V8.552a3.202 3.202 0 0 0-3.198-3.198zm-3.198 12.454c0 .76-.618 1.377-1.377 1.377-.76 0-1.377-.618-1.377-1.377V5.871c0-.759.617-1.376 1.377-1.376.759 0 1.377.617 1.377 1.376V17.81zm4.575-2.682c0 .76-.618 1.377-1.377 1.377-.76 0-1.377-.617-1.377-1.377V8.553c0-.759.618-1.377 1.377-1.377.76 0 1.377.618 1.377 1.377v6.574z"/>
            <path d="M14.958 14.247a.91.91 0 0 0-.911.911v5.302c0 .76-.618 1.377-1.377 1.377-.76 0-1.377-.618-1.377-1.377V3.22c0-.76.618-1.377 1.377-1.377.76 0 1.377.617 1.377 1.377v5.301c0 .503.408.911.91.911h12.285a.91.91 0 0 0 0-1.821H15.868V3.22A3.202 3.202 0 0 0 12.67.022 3.202 3.202 0 0 0 9.48 2.99a3.202 3.202 0 0 0-4.578 2.68A3.202 3.202 0 0 0 .321 8.553v6.575a3.202 3.202 0 0 0 4.583 2.884 3.202 3.202 0 0 0 4.578 2.68 3.202 3.202 0 0 0 3.189 2.967 3.202 3.202 0 0 0 3.198-3.198v-5.302a.91.91 0 0 0-.91-.91zM3.519 16.504c-.759 0-1.376-.617-1.376-1.377V8.553c0-.759.617-1.377 1.376-1.377.76 0 1.377.618 1.377 1.377v6.574c0 .76-.617 1.377-1.377 1.377zm4.576 2.682c-.76 0-1.377-.618-1.377-1.377V5.871c0-.759.617-1.376 1.377-1.376.759 0 1.377.617 1.377 1.376V17.81c0 .76-.618 1.377-1.377 1.377z"/>
            <path d="M14.044 11.893v.306a.91.91 0 0 0 1.822 0v-.306a.91.91 0 0 0-1.822 0zM31.719 11.792v-.305a.91.91 0 0 0-1.822 0v.305a.91.91 0 1 0 1.822 0z"/>
        </g>
    </g>
</svg>
