<svg xmlns="http://www.w3.org/2000/svg" width="151" height="94" viewBox="0 0 151 94">
    <g fill="#EE4D64" fill-rule="evenodd">
        <text font-family="Roboto-Bold, Roboto" font-size="29.861" font-weight="bold" transform="translate(-1)">
            <tspan x="0" y="92.698">GYMPOINT</tspan>
        </text>
        <g fill-rule="nonzero">
            <path d="M118.293 11.825a7.02 7.02 0 0 0-3.056.696c-.23-3.688-3.303-6.618-7.048-6.618a7.02 7.02 0 0 0-3.06.698c-.264-3.657-3.32-6.552-7.043-6.552a7.071 7.071 0 0 0-7.063 7.063V18.82a2.011 2.011 0 0 0 4.022 0V7.112a3.044 3.044 0 0 1 3.04-3.04 3.044 3.044 0 0 1 3.041 3.04v38.07a3.044 3.044 0 0 1-3.04 3.04 3.044 3.044 0 0 1-3.04-3.04V33.474c0-1.11-.901-2.01-2.012-2.01H65.906a2.011 2.011 0 0 0 0 4.022h25.117v9.696a7.071 7.071 0 0 0 7.063 7.064c3.722 0 6.78-2.896 7.042-6.553a7.02 7.02 0 0 0 3.061.699c3.745 0 6.818-2.93 7.048-6.619a7.02 7.02 0 0 0 3.056.696 7.071 7.071 0 0 0 7.063-7.063V18.888a7.071 7.071 0 0 0-7.063-7.063zm-7.063 27.503a3.044 3.044 0 0 1-3.04 3.041 3.044 3.044 0 0 1-3.041-3.04V12.965a3.044 3.044 0 0 1 3.04-3.04 3.044 3.044 0 0 1 3.041 3.04v26.362zm10.104-5.922a3.044 3.044 0 0 1-3.04 3.04 3.044 3.044 0 0 1-3.041-3.04V18.888a3.044 3.044 0 0 1 3.04-3.04 3.044 3.044 0 0 1 3.04 3.04v14.518z"/>
            <path d="M58.031 31.463c-1.11 0-2.01.9-2.01 2.011v11.708a3.044 3.044 0 0 1-3.042 3.04 3.044 3.044 0 0 1-3.04-3.04V7.112a3.044 3.044 0 0 1 3.04-3.04 3.044 3.044 0 0 1 3.041 3.04V18.82c0 1.11.9 2.011 2.011 2.011H85.16a2.011 2.011 0 0 0 0-4.022H60.043V7.112A7.071 7.071 0 0 0 52.979.05c-3.722 0-6.78 2.895-7.042 6.552a7.02 7.02 0 0 0-3.061-.698c-3.745 0-6.818 2.93-7.048 6.618a7.02 7.02 0 0 0-3.056-.696 7.071 7.071 0 0 0-7.063 7.063v14.518a7.071 7.071 0 0 0 7.063 7.063 7.02 7.02 0 0 0 3.056-.696c.23 3.688 3.303 6.619 7.048 6.619 1.096 0 2.134-.251 3.06-.699.264 3.657 3.32 6.552 7.043 6.552a7.071 7.071 0 0 0 7.064-7.063V33.474c0-1.11-.9-2.01-2.012-2.01zm-25.259 4.984a3.044 3.044 0 0 1-3.04-3.04V18.887a3.044 3.044 0 0 1 3.04-3.04 3.044 3.044 0 0 1 3.04 3.04v14.518a3.044 3.044 0 0 1-3.04 3.04zm10.104 5.922a3.044 3.044 0 0 1-3.04-3.04V12.965a3.044 3.044 0 0 1 3.04-3.04 3.044 3.044 0 0 1 3.04 3.04v26.362a3.044 3.044 0 0 1-3.04 3.041z"/>
            <path d="M56.014 26.265v.674a2.011 2.011 0 0 0 4.023 0v-.674a2.011 2.011 0 0 0-4.023 0zM95.045 26.041v-.674a2.011 2.011 0 0 0-4.022 0v.674a2.011 2.011 0 1 0 4.022 0z"/>
        </g>
    </g>
</svg>
